<?xml version="1.0" encoding="UTF-8"?>
<svg xmlns="http://www.w3.org/2000/svg" id="Capa_4" data-name="Capa 4" viewBox="0 0 24 24">
  <path d="m12.342,12.251c-1.394.079-2.263.717-2.214,1.626.052.953,1.103,1.396,2.113,1.341.93-.05,2.14-.412,2.342-2.817-.513-.109-1.077-.167-1.681-.167-.184,0-.37.005-.56.016Z"/>
  <path d="m12,0C5.373,0,0,5.373,0,12s5.373,12,12,12,12-5.373,12-12S18.627,0,12,0Zm-4.824,17.438c1.086,1.353,2.756,2.047,4.964,2.062,1.991-.014,3.308-.478,4.404-1.551,1.25-1.225,1.228-2.728.827-3.641-.236-.539-.663-.987-1.24-1.327-.145,1.025-.471,1.857-.975,2.483-.672.836-1.624,1.294-2.83,1.359-.913.049-1.792-.167-2.474-.608-.807-.522-1.279-1.321-1.33-2.251-.049-.903.309-1.734,1.008-2.339.669-.578,1.609-.917,2.72-.98.819-.046,1.585-.01,2.292.108-.094-.564-.284-1.011-.568-1.333-.39-.444-.993-.671-1.791-.677h-.022c-.641,0-1.512.176-2.067,1.001l-1.334-.897c.743-1.104,1.949-1.712,3.4-1.712h.033c2.426.015,3.87,1.498,4.014,4.09.083.035.163.071.243.108,1.132.532,1.959,1.338,2.394,2.33.605,1.383.661,3.637-1.176,5.435-1.403,1.374-3.106,1.994-5.522,2.01h-.005,0s-.005,0-.005,0c-2.718-.018-4.808-.915-6.212-2.665-1.25-1.557-1.894-3.723-1.916-6.438v-.013c.022-2.716.666-4.881,1.916-6.439,1.403-1.75,3.494-2.646,6.211-2.664h.01c2.084.014,3.827.55,5.182,1.592,1.273.98,2.17,2.376,2.664,4.151l-1.548.432c-.838-3.006-2.958-4.542-6.303-4.566-2.208.016-3.878.71-4.964,2.063-1.017,1.267-1.542,3.097-1.562,5.438.02,2.342.545,4.172,1.562,5.439Z"/>
</svg>
